<?xml version="1.0" encoding="UTF-8"?>
<svg xmlns="http://www.w3.org/2000/svg" xmlns:xlink="http://www.w3.org/1999/xlink" width="51pt" height="58pt" viewBox="0 0 51 58" version="1.1">
<g id="surface1">
<path style=" stroke:none;fill-rule:evenodd;fill:rgb(49.803922%,72.941176%,0%);fill-opacity:1;" d="M 50.640625 31.980469 C 50.640625 23.617188 46.710938 16.28125 40.765625 11.585938 L 40.765625 12.386719 C 40.765625 14.90625 40.089844 17.3125 39.082031 19.375 C 42 22.699219 43.796875 27.050781 43.796875 31.863281 C 43.796875 42.175781 35.601562 50.539062 25.5 50.539062 C 15.398438 50.539062 7.203125 42.175781 7.203125 31.863281 C 7.203125 26.707031 9.226562 22.125 12.480469 18.6875 C 11.582031 16.742188 11.023438 14.5625 11.023438 12.273438 C 11.023438 11.816406 11.023438 11.242188 11.132812 10.785156 C 4.625 15.367188 0.359375 23.15625 0.359375 31.863281 C 0.359375 46.183594 11.582031 57.640625 25.5 57.640625 C 39.417969 57.640625 50.640625 46.183594 50.640625 31.980469 Z M 50.640625 31.980469 "/>
<path style=" stroke:none;fill-rule:evenodd;fill:rgb(98.823529%,81.960784%,8.627451%);fill-opacity:1;" d="M 25.835938 0.359375 C 19.441406 0.359375 14.277344 5.628906 14.277344 12.160156 C 14.277344 17.542969 17.757812 22.011719 22.582031 23.5 L 22.582031 35.1875 L 17.195312 35.1875 L 17.195312 41.144531 L 22.582031 41.144531 L 22.582031 45.496094 L 28.980469 45.496094 L 28.980469 23.386719 C 33.808594 22.011719 37.285156 17.429688 37.285156 12.042969 C 37.398438 5.628906 32.234375 0.359375 25.835938 0.359375 Z M 25.835938 6.542969 C 28.867188 6.542969 31.335938 9.066406 31.335938 12.160156 C 31.335938 15.25 28.867188 17.773438 25.835938 17.773438 C 22.808594 17.773438 20.339844 15.25 20.339844 12.160156 C 20.339844 9.066406 22.808594 6.542969 25.835938 6.542969 Z M 25.835938 6.542969 "/>
</g>
</svg>
